<svg width="14" height="14" viewBox="0 0 14 14" fill="none" xmlns="http://www.w3.org/2000/svg">
<g clip-path="url(#clip0_3075_732)">
<path d="M10.1518 0.108525C10.386 0.262917 10.4864 0.553689 10.3989 0.818729L8.88582 5.36043H11.9968C12.496 5.36043 12.9 5.76442 12.9 6.26363C12.9 6.52095 12.7919 6.7654 12.599 6.93523L4.87163 13.8494C4.6632 14.0373 4.35441 14.0604 4.12025 13.906C3.88609 13.7516 3.78573 13.4609 3.87322 13.1958L5.38627 8.65413H2.27526C1.77606 8.65413 1.37207 8.25014 1.37207 7.75094C1.37207 7.49619 1.48014 7.25174 1.67313 7.07933L9.40046 0.165135C9.60889 -0.0227087 9.91768 -0.0432943 10.1518 0.108525ZM3.14501 7.41899H6.24314C6.44128 7.41899 6.62912 7.5142 6.74492 7.67631C6.86071 7.83843 6.89159 8.04428 6.82983 8.23213L5.77997 11.3792L11.1271 6.59557H8.02895C7.83081 6.59557 7.64297 6.50036 7.52717 6.33825C7.41138 6.17614 7.3805 5.97028 7.44226 5.78244L8.49212 2.63541L3.14501 7.41899Z" fill="white"/>
</g>
<defs>
<clipPath id="clip0_3075_732">
<rect width="14" height="14" fill="white"/>
</clipPath>
</defs>
</svg>
